<svg width="287" height="48" viewBox="0 0 287 48" fill="none" xmlns="http://www.w3.org/2000/svg">
<path d="M242.644 19.9366C245.785 21.7426 245.785 26.2574 242.644 28.0634L209.068 47.3644C205.927 49.1703 202 46.9129 202 43.301V4.69898C202 1.08709 205.927 -1.17034 209.068 0.635606L242.644 19.9366Z" fill="url(#paint0_linear_31_8531)"/>
<path d="M0 46.5455V0H20.0909C23.5455 0 26.5682 0.681819 29.1591 2.04546C31.75 3.40909 33.7652 5.32576 35.2045 7.79546C36.6439 10.2652 37.3636 13.1515 37.3636 16.4545C37.3636 19.7879 36.6212 22.6742 35.1364 25.1136C33.6667 27.553 31.5985 29.4318 28.9318 30.75C26.2803 32.0682 23.1818 32.7273 19.6364 32.7273H7.63636V22.9091H17.0909C18.5758 22.9091 19.8409 22.6515 20.8864 22.1364C21.947 21.6061 22.7576 20.8561 23.3182 19.8864C23.8939 18.9167 24.1818 17.7727 24.1818 16.4545C24.1818 15.1212 23.8939 13.9848 23.3182 13.0455C22.7576 12.0909 21.947 11.3636 20.8864 10.8636C19.8409 10.3485 18.5758 10.0909 17.0909 10.0909H12.6364V46.5455H0Z" fill="white"/>
<path d="M92.636 23.9091C92.636 29.0909 91.6284 33.4621 89.6133 37.0227C87.5981 40.5682 84.8784 43.2576 81.4542 45.0909C78.03 46.9091 74.2118 47.8182 69.9996 47.8182C65.7572 47.8182 61.9239 46.9015 58.4996 45.0682C55.0906 43.2197 52.3784 40.5227 50.3633 36.9773C48.3633 33.4167 47.3633 29.0606 47.3633 23.9091C47.3633 18.7273 48.3633 14.3636 50.3633 10.8182C52.3784 7.25758 55.0906 4.56818 58.4996 2.75C61.9239 0.916667 65.7572 0 69.9996 0C74.2118 0 78.03 0.916667 81.4542 2.75C84.8784 4.56818 87.5981 7.25758 89.6133 10.8182C91.6284 14.3636 92.636 18.7273 92.636 23.9091ZM79.636 23.9091C79.636 21.1212 79.2648 18.7727 78.5224 16.8636C77.7951 14.9394 76.7118 13.4848 75.2724 12.5C73.8481 11.5 72.0906 11 69.9996 11C67.9087 11 66.1436 11.5 64.7042 12.5C63.2799 13.4848 62.1966 14.9394 61.4542 16.8636C60.7269 18.7727 60.3633 21.1212 60.3633 23.9091C60.3633 26.697 60.7269 29.053 61.4542 30.9773C62.1966 32.8864 63.2799 34.3409 64.7042 35.3409C66.1436 36.3258 67.9087 36.8182 69.9996 36.8182C72.0906 36.8182 73.8481 36.3258 75.2724 35.3409C76.7118 34.3409 77.7951 32.8864 78.5224 30.9773C79.2648 29.053 79.636 26.697 79.636 23.9091Z" fill="white"/>
<path d="M102.637 46.5455V0H122.728C126.182 0 129.205 0.628788 131.796 1.88636C134.387 3.14394 136.402 4.95455 137.841 7.31818C139.281 9.68182 140 12.5152 140 15.8182C140 19.1515 139.258 21.9621 137.773 24.25C136.303 26.5379 134.235 28.2652 131.569 29.4318C128.917 30.5985 125.819 31.1818 122.273 31.1818H110.273V21.3636H119.728C121.212 21.3636 122.478 21.1818 123.523 20.8182C124.584 20.4394 125.394 19.8409 125.955 19.0227C126.531 18.2045 126.819 17.1364 126.819 15.8182C126.819 14.4848 126.531 13.4015 125.955 12.5682C125.394 11.7197 124.584 11.0985 123.523 10.7045C122.478 10.2955 121.212 10.0909 119.728 10.0909H115.273V46.5455H102.637ZM129.909 25.1818L141.546 46.5455H127.819L116.455 25.1818H129.909Z" fill="white"/>
<path d="M151.545 10.1818V0H191.999V10.1818H177.999V46.5455H165.545V10.1818H151.545Z" fill="white"/>
<path d="M255 46.5455V0H267.636V36.3636H286.455V46.5455H255Z" fill="white"/>
<defs>
<linearGradient id="paint0_linear_31_8531" x1="223.5" y1="0" x2="223.5" y2="48" gradientUnits="userSpaceOnUse">
<stop stop-color="#7B4397"/>
<stop offset="1" stop-color="#DC2430"/>
</linearGradient>
</defs>
</svg>
