<svg width="204" height="60" viewBox="0 0 204 60" fill="none" xmlns="http://www.w3.org/2000/svg">
    <g clip-path="url(#clip0_0_10928)">
        <path d="M74.1537 40.5332H67.2179L65.5252 45.1647H62.4688L69.2634 27.8372H72.1553L79.1145 45.1647H75.917L74.1537 40.5332ZM68.0879 38.1821H73.2603L71.4029 33.2211C71.1443 32.5394 70.8857 31.787 70.6506 30.9407C70.4154 31.6695 70.1804 32.4218 69.9218 33.1977L68.0879 38.1821Z" fill="white"/>
        <path d="M80.4769 35.4312C80.4769 34.4673 80.4533 33.4327 80.3828 32.2807H83.1571C83.2511 32.8215 83.3216 33.3622 83.3687 33.9265C84.5207 32.6805 85.8373 32.0457 87.3185 32.0457C88.1884 32.0457 88.9877 32.2572 89.7166 32.7039C90.4454 33.1272 91.0333 33.8325 91.5035 34.7728C91.9502 35.7133 92.1853 36.9124 92.1853 38.3466C92.1853 39.8512 91.9267 41.1444 91.4095 42.2023C90.8921 43.2604 90.1868 44.0832 89.2465 44.6239C88.3295 45.1648 87.248 45.4468 86.0489 45.4468C85.1791 45.4468 84.3091 45.3058 83.4628 45.0001V50.3137L80.5003 50.5723V35.4312H80.4769ZM88.2355 42.0378C88.8467 41.2384 89.1289 40.0393 89.1289 38.4876C89.1289 37.0534 88.8703 35.9955 88.3765 35.3371C87.8828 34.6789 87.2245 34.3732 86.378 34.3732C85.8139 34.3732 85.2731 34.5142 84.7793 34.7728C84.2857 35.055 83.8388 35.4076 83.3921 35.8545V42.7666C83.6978 42.9076 84.0269 43.0252 84.4267 43.1193C84.8264 43.2133 85.2025 43.2369 85.5787 43.2369C86.7542 43.2369 87.6476 42.8371 88.2355 42.0378Z" fill="white"/>
        <path d="M94.0433 35.4312C94.0433 34.4673 94.0197 33.4327 93.9492 32.2807H96.7235C96.8175 32.8215 96.8882 33.3622 96.9351 33.9265C98.0871 32.6805 99.4038 32.0457 100.885 32.0457C101.755 32.0457 102.554 32.2572 103.283 32.7039C104.012 33.1272 104.6 33.8325 105.07 34.7728C105.517 35.7133 105.752 36.9124 105.752 38.3466C105.752 39.8512 105.493 41.1444 104.976 42.2023C104.459 43.2604 103.753 44.0832 102.813 44.6239C101.896 45.1648 100.814 45.4468 99.6153 45.4468C98.7455 45.4468 97.8756 45.3058 97.0292 45.0001V50.3137L94.0668 50.5723V35.4312H94.0433ZM101.825 42.0378C102.437 41.2384 102.719 40.0393 102.719 38.4876C102.719 37.0534 102.46 35.9955 101.966 35.3371C101.473 34.6789 100.814 34.3732 99.9681 34.3732C99.4038 34.3732 98.8631 34.5142 98.3693 34.7728C97.8756 35.055 97.4289 35.4076 96.9822 35.8545V42.7666C97.2878 42.9076 97.617 43.0252 98.0166 43.1193C98.4164 43.2133 98.7924 43.2369 99.1686 43.2369C100.344 43.2369 101.214 42.8371 101.825 42.0378Z" fill="white"/>
        <path d="M111.3 44.3653C110.03 43.6599 109.042 42.649 108.361 41.3323C107.679 40.0158 107.326 38.464 107.326 36.6772C107.326 34.7257 107.726 33.0801 108.502 31.7164C109.301 30.3528 110.359 29.3418 111.723 28.6599C113.086 27.9781 114.615 27.6255 116.307 27.6255C117.295 27.6255 118.259 27.7431 119.152 27.9546C120.069 28.1662 120.892 28.4719 121.691 28.848L120.939 31.1286C119.364 30.3762 117.859 30.0001 116.448 30.0001C115.249 30.0001 114.191 30.2587 113.274 30.7759C112.357 31.2931 111.676 32.0455 111.158 33.033C110.665 34.0204 110.406 35.2431 110.406 36.6537C110.406 37.8997 110.594 38.9812 110.994 39.9453C111.394 40.9092 111.981 41.6616 112.828 42.2257C113.651 42.79 114.709 43.0722 115.978 43.0722C116.542 43.0722 117.13 43.0252 117.694 42.9312C118.259 42.8371 118.8 42.696 119.317 42.5079V39.0048H115.32V36.6772H122.209V43.9656C121.221 44.4358 120.187 44.7885 119.082 45.0235C118 45.2823 116.919 45.3997 115.837 45.3997C114.097 45.4233 112.593 45.0706 111.3 44.3653Z" fill="white"/>
        <path d="M132.837 45.1882C132.743 44.6944 132.673 44.1067 132.625 43.4719C132.179 44.0126 131.567 44.4829 130.839 44.8589C130.11 45.2351 129.287 45.4232 128.37 45.4232C127.618 45.4232 126.959 45.2822 126.348 44.9765C125.737 44.6944 125.243 44.2477 124.89 43.66C124.538 43.0721 124.35 42.3668 124.35 41.5204C124.35 40.2743 124.796 39.2633 125.713 38.5345C126.607 37.7822 128.111 37.406 130.227 37.406C131.027 37.406 131.803 37.453 132.578 37.5706V37.312C132.578 36.16 132.343 35.3606 131.85 34.8904C131.356 34.4201 130.674 34.1851 129.757 34.1851C129.122 34.1851 128.464 34.2791 127.735 34.4671C127.006 34.6552 126.395 34.8668 125.854 35.1254L125.384 32.9624C125.901 32.7274 126.607 32.4922 127.477 32.3041C128.347 32.116 129.24 31.9985 130.204 31.9985C131.309 31.9985 132.273 32.1631 133.049 32.5157C133.825 32.8448 134.436 33.4327 134.883 34.2556C135.329 35.0785 135.541 36.1834 135.541 37.5941V42.7195C135.541 43.2602 135.564 44.0596 135.635 45.1411H132.837V45.1882ZM131.074 42.79C131.685 42.4844 132.202 42.1318 132.578 41.6851V39.2869C131.779 39.1928 131.121 39.1459 130.604 39.1459C129.381 39.1459 128.535 39.334 128.064 39.7336C127.594 40.1333 127.359 40.6505 127.359 41.3323C127.359 41.9671 127.524 42.4373 127.876 42.743C128.205 43.0486 128.676 43.2133 129.263 43.2133C129.851 43.2367 130.462 43.0721 131.074 42.79Z" fill="white"/>
        <path d="M138.104 42.0847V26.8261L141.042 26.5911V41.5675C141.042 42.1083 141.137 42.508 141.325 42.7431C141.513 42.9783 141.818 43.0957 142.218 43.0957C142.406 43.0957 142.665 43.0488 142.994 42.9547L143.346 45.0706C143.064 45.1882 142.735 45.2823 142.312 45.3294C141.912 45.3999 141.536 45.4234 141.16 45.4234C139.138 45.4234 138.104 44.3184 138.104 42.0847Z" fill="white"/>
        <path d="M145.461 42.0847V26.8261L148.4 26.5911V41.5675C148.4 42.1083 148.494 42.508 148.682 42.7431C148.87 42.9783 149.176 43.0957 149.575 43.0957C149.763 43.0957 150.022 43.0488 150.352 42.9547L150.704 45.0706C150.422 45.1882 150.092 45.2823 149.669 45.3294C149.27 45.3999 148.894 45.4234 148.517 45.4234C146.495 45.4234 145.461 44.3184 145.461 42.0847Z" fill="white"/>
        <path d="M162.955 39.0991H154.514C154.655 41.8028 155.948 43.1429 158.371 43.1429C158.981 43.1429 159.593 43.0724 160.228 42.9314C160.862 42.7903 161.474 42.5788 162.061 42.3436L162.697 44.3656C161.263 45.0709 159.64 45.4235 157.829 45.4235C156.466 45.4235 155.29 45.1649 154.349 44.6477C153.409 44.1304 152.704 43.3781 152.234 42.4141C151.763 41.4502 151.529 40.2746 151.529 38.8874C151.529 37.4533 151.787 36.2308 152.281 35.1962C152.774 34.1618 153.479 33.3859 154.373 32.8451C155.267 32.3044 156.301 32.0222 157.477 32.0222C158.699 32.0222 159.71 32.3044 160.534 32.8687C161.356 33.433 161.968 34.2088 162.344 35.1493C162.743 36.0896 162.931 37.1477 162.931 38.2997V39.0991H162.955ZM160.063 37.2182C160.016 36.1837 159.757 35.4079 159.287 34.9141C158.816 34.3969 158.206 34.1383 157.43 34.1383C156.677 34.1383 156.067 34.3969 155.549 34.9141C155.056 35.4314 154.726 36.2072 154.585 37.2182H160.063Z" fill="white"/>
        <path d="M165.329 35.5252C165.329 34.8199 165.305 33.7384 165.234 32.2807H168.009C168.056 32.6334 168.102 33.0801 168.15 33.5739C168.197 34.0675 168.221 34.4673 168.245 34.7964C168.597 34.2321 168.926 33.762 169.256 33.3622C169.584 32.9626 169.983 32.6569 170.408 32.4219C170.853 32.1867 171.347 32.0457 171.912 32.0457C172.358 32.0457 172.758 32.0926 173.087 32.1867L172.712 34.7494C172.428 34.6554 172.1 34.6083 171.747 34.6083C171.042 34.6083 170.454 34.7964 169.937 35.149C169.419 35.5017 168.855 36.0895 168.267 36.9124V45.2118H165.329V35.5252Z" fill="white"/>
        <path d="M174.85 50.4547C174.427 50.3842 174.075 50.2902 173.793 50.1961L174.333 48.0331C174.522 48.0802 174.78 48.1507 175.086 48.1977C175.392 48.2448 175.674 48.2683 175.956 48.2683C177.273 48.2683 178.236 47.4219 178.894 45.7525L179.082 45.2824L174.333 32.2573H177.507L179.905 39.5221C180.306 40.7683 180.54 41.7087 180.658 42.3906C180.892 41.4501 181.152 40.5331 181.458 39.5928L183.879 32.2573H186.865L182.115 45.3294C181.669 46.5754 181.174 47.5629 180.658 48.3153C180.141 49.0677 179.529 49.632 178.824 50.008C178.119 50.3842 177.273 50.5488 176.262 50.5488C175.744 50.5723 175.297 50.5488 174.85 50.4547Z" fill="white"/>
        <path fill-rule="evenodd" clip-rule="evenodd" d="M40.533 10.9092H23.8402C15.9876 10.9092 13.0957 13.7775 13.0957 21.6537V38.3464C13.0957 46.1992 15.964 49.0911 23.8402 49.0911H40.533C48.3856 49.0911 51.2775 46.2226 51.2775 38.3464V21.6537C51.2539 13.7775 48.3856 10.9092 40.533 10.9092Z" fill="#C8102E"/>
        <path d="M20.6666 30H21.6774V34.9843H20.6666V32.9625H18.386V34.9843H17.375V30H18.386V32.022H20.6666V30ZM26.3562 32.8449C26.3562 33.6442 25.9565 34.0909 25.2276 34.0909C24.4988 34.0909 24.0757 33.6442 24.0757 32.8213V30H23.0646V32.8449C23.0646 34.2555 23.8406 35.055 25.2041 35.055C26.5678 35.055 27.3672 34.2321 27.3672 32.7979V29.9766H26.3562V32.8449ZM38.0647 33.4326L36.9362 30H36.1133L34.9847 33.4326L33.8797 30H32.7982L34.538 34.9843H35.3844L36.5129 31.7163L37.6415 34.9843H38.4878L40.2276 30H39.1697L38.0647 33.4326ZM42.0145 32.8449H43.8483V31.9279H42.0145V30.9169H44.6948V30H41.027V34.9843H44.7888V34.0674H42.0145V32.8449ZM46.0114 34.9843H46.9988V30H46.0114V34.9843ZM29.3656 33.9499L28.9188 34.9843H27.8844L30.071 30H30.9644L33.1508 34.9843H32.0928L31.6461 33.9499H29.3656ZM29.7417 33.033H31.2699L30.4941 31.2462L29.7417 33.033Z" fill="white"/>
        <path d="M32.1859 23.652C28.6826 23.652 25.8379 20.8071 25.8379 17.304H26.7313C26.7313 20.3134 29.1764 22.7586 32.1859 22.7586C35.1952 22.7586 37.6403 20.3134 37.6403 17.304H38.5337C38.5337 20.7835 35.689 23.652 32.1859 23.652Z" fill="white"/>
        <path d="M64.092 21.2538C63.4572 20.9012 62.987 20.384 62.6577 19.7492C62.3286 19.1144 62.1641 18.3384 62.1641 17.4921C62.1641 16.5986 62.3286 15.7992 62.6813 15.1175C63.0339 14.4356 63.5511 13.9184 64.2095 13.5422C64.8678 13.166 65.6436 13.0015 66.5606 13.0015C67.4306 13.0015 68.1593 13.1896 68.7941 13.5422C69.4055 13.8949 69.8991 14.3886 70.2284 15.047C70.5575 15.6818 70.722 16.434 70.722 17.2805C70.722 18.1974 70.5339 18.9968 70.1813 19.6785C69.8286 20.3604 69.3114 20.8776 68.6531 21.2538C67.9947 21.63 67.2189 21.7946 66.3255 21.7946C65.4555 21.7946 64.7267 21.63 64.092 21.2538ZM67.9242 20.2193C68.3474 19.9371 68.6531 19.5611 68.8412 19.0673C69.0528 18.5736 69.1469 18.0329 69.1469 17.3981C69.1469 16.7867 69.0528 16.2459 68.8647 15.7523C68.6766 15.2585 68.3945 14.8823 67.9947 14.6002C67.5951 14.3181 67.0778 14.177 66.4665 14.177C65.8788 14.177 65.3615 14.3181 64.9383 14.6002C64.5152 14.8823 64.2095 15.282 63.998 15.7523C63.7863 16.2459 63.6923 16.7633 63.6923 17.351C63.6923 17.9622 63.7863 18.5265 63.998 19.0203C64.1859 19.514 64.4916 19.8902 64.8914 20.1723C65.291 20.4545 65.8083 20.5955 66.396 20.5955C67.0073 20.619 67.5011 20.5014 67.9242 20.2193Z" fill="white"/>
        <path d="M73.7074 14.3652H71.0508L71.1918 13.1426H77.8219L77.6808 14.3652H75.1651V21.6771H73.684V14.3652H73.7074Z" fill="white"/>
        <path d="M85.769 21.677H84.0997L81.5606 17.9151H80.5496V21.677H79.0684V13.1425H80.5496V16.6691H81.3254L83.0888 14.1064C83.3474 13.7302 83.606 13.4481 83.8646 13.2835C84.1232 13.119 84.4525 13.0249 84.8521 13.0249C85.1813 13.0249 85.4869 13.0719 85.7455 13.1895L85.4399 14.3415C85.2752 14.271 85.1342 14.2475 84.9697 14.2475C84.8051 14.2475 84.6404 14.2945 84.523 14.3885C84.4054 14.4826 84.2644 14.6236 84.1468 14.8117L82.5715 17.0453L85.769 21.677Z" fill="white"/>
        <path d="M86.8965 13.1426H89.2005C90.282 13.1426 91.1049 13.3542 91.6926 13.8009C92.2804 14.2476 92.5626 14.8824 92.5626 15.7053C92.5626 16.2696 92.445 16.7632 92.1864 17.1864C91.9278 17.6097 91.5751 17.9388 91.1049 18.1504C90.6346 18.3855 90.1174 18.4795 89.5062 18.4795C89.1769 18.4795 88.8007 18.4326 88.3776 18.3619V21.6536H86.8965V13.1426ZM90.6111 16.9513C90.9168 16.6692 91.0813 16.2696 91.0813 15.7522C91.0813 15.235 90.9168 14.8354 90.6111 14.6238C90.282 14.3887 89.8117 14.2711 89.2005 14.2711H88.4011V17.304C88.7773 17.3745 89.0595 17.398 89.2476 17.398C89.8353 17.3745 90.282 17.2335 90.6111 16.9513Z" fill="white"/>
        <path d="M95.385 21.2538C94.7502 20.9012 94.2799 20.384 93.9508 19.7492C93.6216 19.1144 93.457 18.3384 93.457 17.4921C93.457 16.5986 93.6216 15.7992 93.9742 15.1175C94.3269 14.4356 94.8442 13.9184 95.5024 13.5422C96.1608 13.166 96.9367 13.0015 97.8535 13.0015C98.7235 13.0015 99.4524 13.1896 100.087 13.5422C100.698 13.8949 101.192 14.3886 101.521 15.047C101.85 15.6818 102.015 16.434 102.015 17.2805C102.015 18.1974 101.827 18.9968 101.474 19.6785C101.122 20.3604 100.604 20.8776 99.946 21.2538C99.2877 21.63 98.5119 21.7946 97.6185 21.7946C96.772 21.7946 96.0198 21.63 95.385 21.2538ZM99.2172 20.2193C99.6405 19.9371 99.946 19.5611 100.134 19.0673C100.346 18.5736 100.44 18.0329 100.44 17.3981C100.44 16.7867 100.346 16.2459 100.158 15.7523C99.9696 15.282 99.6874 14.8823 99.2877 14.6002C98.8881 14.3181 98.3709 14.177 97.7595 14.177C97.1718 14.177 96.6546 14.3181 96.2313 14.6002C95.8081 14.8823 95.5024 15.282 95.2909 15.7523C95.0793 16.2459 94.9852 16.7633 94.9852 17.351C94.9852 17.9622 95.0793 18.5265 95.2909 19.0203C95.479 19.514 95.7846 19.8902 96.1843 20.1723C96.5839 20.4545 97.1013 20.5955 97.689 20.5955C98.3002 20.619 98.8176 20.5014 99.2172 20.2193Z" fill="white"/>
        <path d="M109.514 21.6772V16.975C109.514 16.3872 109.538 15.7054 109.585 14.9531L105.283 21.6772H103.637V13.1427H105V18.033C105 18.5737 104.977 19.138 104.953 19.7728L109.185 13.1427H110.878V21.7008H109.514V21.6772ZM106.176 12.3904C105.87 12.2258 105.635 12.0142 105.471 11.7556C105.306 11.4969 105.212 11.2148 105.165 10.9092H106.223C106.34 11.544 106.717 11.8496 107.328 11.8496C107.963 11.8496 108.315 11.544 108.433 10.9092H109.491C109.444 11.2148 109.35 11.4969 109.185 11.7556C109.021 12.0142 108.786 12.2258 108.48 12.3904C108.174 12.5549 107.775 12.649 107.328 12.649C106.881 12.6255 106.505 12.5549 106.176 12.3904Z" fill="white"/>
        <path d="M114.782 14.3652H112.148L112.29 13.1426H118.943L118.802 14.3652H116.286V21.6771H114.805V14.3652H114.782Z" fill="white"/>
        <path d="M120.164 13.1426H125.195L125.078 14.3416H121.669V16.6927H124.89V17.8212H121.669V20.4544H125.266L125.148 21.6771H120.187V13.1426H120.164Z" fill="white"/>
        <path d="M135.541 17.4451C135.846 17.6331 136.081 17.8683 136.269 18.174C136.458 18.4795 136.528 18.8322 136.528 19.2555C136.528 19.7256 136.41 20.1489 136.175 20.5249C135.94 20.8777 135.588 21.1833 135.141 21.3714C134.671 21.583 134.13 21.6771 133.495 21.6771H130.697V13.1426H133.378C134.294 13.1426 134.953 13.3072 135.423 13.6598C135.87 14.0125 136.105 14.4827 136.105 15.094C136.105 15.6112 135.964 16.0344 135.682 16.3636C135.399 16.6927 135.023 16.9513 134.553 17.0923C134.882 17.1394 135.235 17.2804 135.541 17.4451ZM132.131 16.6222H133.048C133.354 16.6222 133.636 16.5516 133.871 16.4341C134.106 16.3165 134.295 16.152 134.412 15.9403C134.53 15.7288 134.6 15.5172 134.6 15.2586C134.6 14.9059 134.483 14.6473 134.224 14.4827C133.965 14.3181 133.613 14.2241 133.119 14.2241H132.131V16.6222ZM134.6 20.2194C134.906 19.9842 135.047 19.6315 135.047 19.1848C135.047 18.7147 134.882 18.3385 134.553 18.1033C134.224 17.8683 133.73 17.7271 133.119 17.7271H132.131V20.5956H133.236C133.848 20.5956 134.295 20.4544 134.6 20.2194Z" fill="white"/>
    </g>
    <defs>
        <clipPath id="clip0_0_10928">
            <rect width="204" height="60" fill="white"/>
        </clipPath>
    </defs>
</svg>
