<svg width="150" height="60" viewBox="0 0 150 60" fill="none" xmlns="http://www.w3.org/2000/svg">
    <g clip-path="url(#clip0_0_10974)">
        <path d="M100.816 33.1505L100.667 24.3538H103.372V35.4421H99.4826L96.7817 26.3431H96.7228L96.8735 35.4421H94.1836V24.3538H98.2436L100.757 33.1505H100.816Z" fill="white"/>
        <path d="M51.6288 25.3933L50.132 35.5586H47.1797L49.2054 24.3538H54.0675L56.0867 35.5586H53.1453L51.69 25.3933H51.6288Z" fill="white"/>
        <path d="M64.3715 32.9198L65.7221 24.3538H70.1798L70.4159 35.5586H67.6844L67.6123 25.4851H67.5554L65.7286 35.5586H62.9555L61.1266 25.4851H61.0675L60.9998 35.5586H58.2617L58.5043 24.3538H62.9644L64.3126 32.9198H64.3715Z" fill="white"/>
        <path d="M42.5763 32.398C42.6834 32.6691 42.6505 33.0185 42.6003 33.2291C42.5085 33.6009 42.2616 33.9817 41.5361 33.9817C40.85 33.9817 40.4347 33.5785 40.4347 32.9647V31.8806H37.5022L37.5 32.7474C37.5 35.2451 39.4187 36 41.4749 36C43.4526 36 45.0805 35.3078 45.3384 33.4397C45.4716 32.4719 45.3711 31.838 45.3274 31.5983C44.8663 29.253 40.7166 28.5518 40.4085 27.2414C40.3561 27.0174 40.3714 26.7777 40.3975 26.6501C40.474 26.2938 40.7122 25.8996 41.3962 25.8996C42.0343 25.8996 42.4124 26.3051 42.4124 26.9166C42.4124 27.1227 42.4124 27.6087 42.4124 27.6087H45.1374V26.8226C45.1374 24.3809 43.0002 24 41.4531 24C39.5082 24 37.9196 24.6586 37.629 26.482C37.5503 26.986 37.5393 27.4339 37.653 27.9963C38.1315 30.2833 42.0124 30.9463 42.5763 32.398Z" fill="white"/>
        <path d="M78.118 32.3796C78.2251 32.6484 78.1901 32.9889 78.142 33.1995C78.0524 33.5714 77.8076 33.9455 77.0866 33.9455C76.4113 33.9455 75.9983 33.5423 75.9983 32.9418L75.9961 31.8666H73.0942L73.0898 32.7224C73.0898 35.1954 74.9909 35.9414 77.0254 35.9414C78.9811 35.9414 80.5939 35.2581 80.8495 33.4079C80.9828 32.4468 80.8888 31.8218 80.8408 31.5866C80.3818 29.2637 76.2758 28.5693 75.9698 27.27C75.9175 27.0461 75.9328 26.8109 75.959 26.6898C76.0376 26.3292 76.2715 25.9461 76.9489 25.9461C77.5826 25.9461 77.9519 26.3405 77.9519 26.9498C77.9519 27.1536 77.9519 27.6351 77.9519 27.6351H80.6572V26.8556C80.6572 24.4409 78.5375 24.0623 77.0035 24.0623C75.0805 24.0623 73.505 24.7119 73.2209 26.5241C73.1422 27.0213 73.1335 27.4605 73.2472 28.0205C73.717 30.2852 77.5607 30.9437 78.118 32.3796Z" fill="white"/>
        <path d="M87.2976 33.8831C88.0559 33.8831 88.292 33.3455 88.3443 33.0699C88.3662 32.949 88.3728 32.7878 88.3706 32.6421V24.3494H91.1349V32.3867C91.1415 32.5928 91.1219 33.0162 91.1109 33.1215C90.9164 35.2137 89.3037 35.8925 87.2955 35.8925C85.2851 35.8925 83.6702 35.2137 83.4779 33.1215C83.469 33.0162 83.4494 32.5905 83.4537 32.3867V24.3494H86.216V32.6399C86.216 32.7855 86.2203 32.949 86.2422 33.0677C86.3034 33.3432 86.5328 33.8831 87.2976 33.8831Z" fill="white"/>
        <path d="M110.103 33.765C110.894 33.765 111.171 33.252 111.222 32.9541C111.241 32.8265 111.248 32.6696 111.246 32.5284V30.9023H110.124V29.267H114.001V32.2754C113.999 32.486 113.995 32.6405 113.962 33.0146C113.78 35.0531 112.054 35.781 110.118 35.781C108.177 35.781 106.456 35.0531 106.27 33.0146C106.239 32.6405 106.235 32.486 106.23 32.2754L106.233 27.5577C106.233 27.3584 106.257 27.0068 106.279 26.8185C106.521 24.7241 108.177 24.0498 110.118 24.0498C112.056 24.0498 113.754 24.7196 113.955 26.8185C113.99 27.1748 113.979 27.5577 113.979 27.5577V27.9318H111.224V27.3047C111.226 27.3069 111.219 27.0381 111.189 26.879C111.143 26.6304 110.933 26.0615 110.098 26.0615C109.301 26.0615 109.069 26.5991 109.01 26.879C108.977 27.0269 108.964 27.2262 108.964 27.4077V32.5329C108.962 32.6741 108.971 32.831 108.993 32.9586C109.036 33.252 109.312 33.765 110.103 33.765Z" fill="white"/>
    </g>
    <defs>
        <clipPath id="clip0_0_10974">
            <rect width="150" height="60" fill="white"/>
        </clipPath>
    </defs>
</svg>
