<svg width="204" height="60" viewBox="0 0 204 60" fill="none" xmlns="http://www.w3.org/2000/svg">
    <g clip-path="url(#clip0_0_10952)">

        <path d="M49.4094 30.2645C49.4426 27.6953 50.7894 25.3222 52.9784 23.9765C51.5912 21.9955 49.3512 20.7845 46.934 20.7088C44.3909 20.4419 41.9255 22.2305 40.6296 22.2305C39.3086 22.2305 37.3133 20.7353 35.1648 20.7796C32.3378 20.8709 29.7662 22.4392 28.3908 24.9107C25.4619 29.9816 27.6467 37.4342 30.4523 41.5331C31.856 43.5403 33.4965 45.7823 35.6432 45.7028C37.7438 45.6157 38.5283 44.3633 41.0639 44.3633C43.5761 44.3633 44.3121 45.7028 46.5023 45.6523C48.7563 45.6157 50.1764 43.6361 51.5309 41.6101C52.5395 40.1798 53.3156 38.5993 53.8304 36.9266C51.1533 35.7944 49.4126 33.1712 49.4094 30.2645Z" fill="white"/>
        <path d="M45.2722 18.0133C46.5011 16.5379 47.1067 14.6416 46.96 12.7271C45.0824 12.9243 43.348 13.8216 42.1024 15.2404C40.8724 16.6402 40.2493 18.4716 40.3703 20.331C42.2731 20.3506 44.0798 19.4964 45.2722 18.0133Z" fill="white"/>
        <path fill-rule="evenodd" clip-rule="evenodd" d="M68.7929 40.6227H75.9612L77.6813 45.7058H80.7693L73.9796 26.8997H70.8249L64.0352 45.7058H67.0715L68.7929 40.6227ZM75.2174 38.2761H69.5354L72.338 30.0266H72.4163L75.2174 38.2761Z" fill="white"/>
        <path fill-rule="evenodd" clip-rule="evenodd" d="M89.7131 45.8482C93.1545 45.8482 95.4351 43.1107 95.4351 38.8499C95.4351 34.601 93.1412 31.8502 89.6613 31.8502C87.8708 31.7924 86.1933 32.7238 85.2956 34.2742H85.2438V31.9936H82.5195V50.2406H85.334V43.4494H85.3991C86.2586 45.0095 87.9342 45.9413 89.7131 45.8482ZM88.919 34.249C91.1078 34.249 92.5424 36.074 92.5424 38.8499C92.5424 41.651 91.1079 43.4627 88.919 43.4627C86.7687 43.4627 85.3223 41.6126 85.3223 38.8499C85.3223 36.1124 86.7687 34.249 88.919 34.249Z" fill="white"/>
        <path fill-rule="evenodd" clip-rule="evenodd" d="M104.803 45.8482C108.244 45.8482 110.525 43.1107 110.525 38.8499C110.525 34.6009 108.231 31.8502 104.751 31.8502C102.96 31.7924 101.283 32.7238 100.385 34.274H100.334V31.9936H97.6094V50.2406H100.424V43.4494H100.489C101.348 45.0095 103.024 45.9412 104.803 45.8482ZM104.008 34.249C106.197 34.249 107.632 36.074 107.632 38.8499C107.632 41.651 106.197 43.4627 104.008 43.4627C101.858 43.4627 100.412 41.6126 100.412 38.8499C100.412 36.1124 101.858 34.249 104.008 34.249Z" fill="white"/>
        <path d="M120.498 40.465C120.707 42.33 122.518 43.5544 124.994 43.5544C127.366 43.5544 129.073 42.33 129.073 40.6483C129.073 39.1887 128.044 38.3146 125.606 37.7157L123.169 37.1286C119.716 36.2944 118.113 34.6794 118.113 32.0587C118.113 28.8139 120.94 26.5852 124.956 26.5852C128.929 26.5852 131.654 28.8139 131.745 32.0587H128.904C128.734 30.1819 127.183 29.0491 124.916 29.0491C122.648 29.0491 121.097 30.1953 121.097 31.8636C121.097 33.193 122.088 33.9754 124.512 34.5744L126.584 35.083C130.442 35.9956 132.046 37.5456 132.046 40.2963C132.046 43.8147 129.243 46.0183 124.786 46.0183C120.615 46.0183 117.799 43.8664 117.617 40.4649L120.498 40.465Z" fill="white"/>
        <path d="M138.12 28.749V31.9938H140.727V34.2225H138.12V41.7813C138.12 42.9557 138.642 43.5029 139.788 43.5029C140.098 43.4975 140.407 43.4757 140.714 43.4378V45.6531C140.199 45.7494 139.675 45.7931 139.151 45.7833C136.375 45.7833 135.292 44.7407 135.292 42.0815V34.2225H133.299V31.9938H135.292V28.749H138.12Z" fill="white"/>
        <path fill-rule="evenodd" clip-rule="evenodd" d="M148.741 31.8252C144.779 31.8252 142.238 34.536 142.238 38.8501C142.238 43.176 144.754 45.8749 148.741 45.8749C152.73 45.8749 155.246 43.176 155.246 38.8501C155.246 34.536 152.717 31.8252 148.741 31.8252ZM148.741 34.144C151.022 34.144 152.378 35.8906 152.378 38.85C152.378 41.8212 151.022 43.5544 148.741 43.5544C146.461 43.5544 145.106 41.8212 145.106 38.85C145.106 35.904 146.461 34.144 148.741 34.144Z" fill="white"/>
        <path d="M157.564 31.9938H160.249V34.3275H160.314C160.689 32.8253 162.066 31.7913 163.612 31.8503C163.936 31.8492 164.26 31.8845 164.577 31.9553V34.5878C164.167 34.4627 163.74 34.4052 163.312 34.4178C162.484 34.3842 161.683 34.7139 161.121 35.3204C160.557 35.927 160.285 36.7496 160.38 37.5723V45.7049H157.564V31.9938Z" fill="white"/>
        <path fill-rule="evenodd" clip-rule="evenodd" d="M171.649 45.8749C174.749 45.8749 177.173 44.1667 177.553 41.6778H174.88C174.367 42.9499 173.08 43.7343 171.713 43.6063C170.69 43.644 169.699 43.2399 168.992 42.4969C168.287 41.7538 167.935 40.7434 168.025 39.7227V39.5526H177.709V38.5882C177.709 34.431 175.324 31.8252 171.53 31.8252C167.674 31.8252 165.184 34.6144 165.184 38.9151C165.184 43.2025 167.66 45.8749 171.649 45.8749ZM174.893 37.5856H168.038C168.037 36.6598 168.404 35.7715 169.06 35.1181C169.715 34.4646 170.605 34.1001 171.53 34.1056C172.448 34.086 173.333 34.4502 173.972 35.1108C174.611 35.7714 174.944 36.6684 174.893 37.5856Z" fill="white"/>
        <path d="M67.5343 16.5633H68.7426C69.163 16.6156 69.5863 16.4899 69.9099 16.2163C70.2336 15.9427 70.428 15.5463 70.4463 15.1228C70.4463 14.2895 69.8193 13.7511 68.7559 13.7511C68.3253 13.691 67.8888 13.8074 67.5454 14.0739C67.2019 14.3405 66.9808 14.7345 66.9324 15.1665H65.6056C65.6518 14.3819 66.0219 13.6517 66.6274 13.1506C67.2328 12.6494 68.0193 12.4223 68.7987 12.5236C70.5778 12.5236 71.8306 13.5197 71.8306 14.9535C71.8392 15.9433 71.155 16.8046 70.189 17.0203V17.1268C71.346 17.1781 72.2442 18.1546 72.1989 19.3119C72.1158 20.1193 71.7111 20.8591 71.0761 21.3646C70.441 21.87 69.6292 22.0984 68.8239 21.9984C68.0167 22.1085 67.1994 21.8859 66.5593 21.3817C65.9194 20.8776 65.5117 20.1351 65.4297 19.3245H66.7771C66.8584 20.1889 67.6525 20.7465 68.8239 20.7465C69.9952 20.7465 70.7598 20.1202 70.7598 19.2373C70.7598 18.3418 70.0396 17.7901 68.781 17.7901H67.5343V16.5633Z" fill="white"/>
        <path fill-rule="evenodd" clip-rule="evenodd" d="M76.2668 17.815C74.6459 17.9157 73.7305 18.6232 73.7305 19.8508C73.7327 20.4328 73.9811 20.9868 74.4142 21.3756C74.8474 21.7644 75.4247 21.9519 76.0036 21.8917C76.8295 21.9298 77.6119 21.5208 78.052 20.821H78.1585V21.7794H79.4554V17.1199C79.4554 15.6795 78.4912 14.8284 76.7815 14.8284C75.2345 14.8284 74.1313 15.5797 73.9937 16.7509H75.2966C75.4475 16.2688 75.9667 15.993 76.7179 15.993C77.6393 15.993 78.1141 16.3998 78.1141 17.1199V17.7085L76.2668 17.815ZM78.1145 18.6979V19.2681C78.0851 19.7026 77.8805 20.1067 77.5477 20.3877C77.2148 20.6688 76.7821 20.8026 76.3487 20.7588C75.6166 20.7588 75.0841 20.4016 75.0841 19.7878C75.0841 19.1866 75.5101 18.8673 76.4492 18.8044L78.1145 18.6979Z" fill="white"/>
        <path d="M83.0294 16.093V21.7795H81.6836V14.9602H86.1737V16.093H83.0294Z" fill="white"/>
        <path fill-rule="evenodd" clip-rule="evenodd" d="M91.5119 21.8918C93.2333 21.8918 94.3292 20.5334 94.3292 18.3668C94.3292 16.1994 93.2333 14.8469 91.4985 14.8469C90.6084 14.825 89.7812 15.3041 89.357 16.0871H89.2565V14.96H87.9609V24.0465H89.3067V20.7464H89.4132C89.8304 21.5039 90.6491 21.9507 91.5119 21.8918ZM91.1228 16.0559C92.2629 16.0559 92.9448 16.9263 92.9448 18.3668C92.9448 19.8131 92.2629 20.6835 91.1168 20.6835C89.99 20.6835 89.2815 19.7939 89.2815 18.3726C89.2815 16.9448 89.99 16.0559 91.1228 16.0559Z" fill="white"/>
        <path d="M96.1209 24.222V23.0632C96.2665 23.0818 96.4134 23.0902 96.5601 23.0884C97.1539 23.1324 97.6855 22.7223 97.7935 22.1367L97.894 21.8047L95.4258 14.9602H96.8914L98.6011 20.3767H98.7076L100.411 14.9602H101.838L99.2962 22.0612C98.7135 23.7207 98.0686 24.253 96.6784 24.253C96.5661 24.253 96.2466 24.2404 96.1209 24.222Z" fill="white"/>
        <path d="M102.887 19.8442H104.227C104.358 20.4454 104.922 20.7589 105.71 20.7589C106.606 20.7589 107.156 20.3641 107.156 19.7503C107.156 19.093 106.663 18.7795 105.71 18.7795H104.69V17.7339H105.692C106.506 17.7339 106.92 17.4211 106.92 16.851C106.92 16.3503 106.519 15.9681 105.692 15.9681C104.939 15.9681 104.389 16.2874 104.302 16.8258H103.005C103.207 15.5389 104.402 14.6507 105.692 14.8286C107.313 14.8286 108.241 15.5613 108.241 16.7134C108.256 17.3746 107.807 17.9566 107.164 18.1095V18.216C107.933 18.3153 108.506 18.9747 108.498 19.7503C108.498 21.0468 107.395 21.9045 105.71 21.9045C104.221 21.9045 103.011 21.2218 102.887 19.8442Z" fill="white"/>
        <path d="M110.436 21.7795V14.9602H111.77V19.6507H111.876L115.019 14.9602H116.353V21.7795H115.019V17.064H114.918L111.77 21.7795H110.436Z" fill="white"/>
        <path d="M123.703 16.093H121.555V21.7795H120.208V16.093H118.061V14.9602H123.703V16.093Z" fill="white"/>
        <path fill-rule="evenodd" clip-rule="evenodd" d="M127.996 21.9108C129.329 22.055 130.574 21.2241 130.952 19.938L129.655 19.9379C129.332 20.5167 128.692 20.8433 128.034 20.7647C127.526 20.7708 127.039 20.5622 126.693 20.19C126.348 19.818 126.175 19.3172 126.218 18.8111V18.7356H131.033V18.266C131.033 16.1246 129.887 14.8282 127.99 14.8282C127.078 14.8205 126.208 15.2087 125.605 15.8922C125.001 16.5758 124.725 17.4873 124.846 18.3909C124.721 19.2921 124.999 20.2023 125.606 20.8802C126.212 21.5579 127.086 21.9348 127.996 21.9108ZM129.661 17.7402H126.218C126.211 17.2698 126.395 16.8167 126.727 16.484C127.06 16.1513 127.513 15.9672 127.983 15.9737C128.447 15.9633 128.894 16.1492 129.213 16.4856C129.532 16.8221 129.695 17.2776 129.661 17.7402Z" fill="white"/>
        <path fill-rule="evenodd" clip-rule="evenodd" d="M136.656 14.9602H139.731C141.065 14.9602 141.847 15.6361 141.847 16.6942C141.851 17.3862 141.371 17.9868 140.695 18.1347V18.2412C141.522 18.2934 142.163 18.9846 142.153 19.8133C142.153 21.0031 141.259 21.7795 139.762 21.7795H136.656V14.9602ZM137.99 15.9933V17.7592H139.324C140.138 17.7592 140.527 17.4463 140.527 16.8696C140.527 16.338 140.188 15.9933 139.474 15.9933H137.99ZM137.99 20.7465V18.7485H139.417C140.326 18.7485 140.808 19.068 140.808 19.7505C140.808 20.3953 140.382 20.7465 139.586 20.7465H137.99Z" fill="white"/>
    </g>
    <defs>
        <clipPath id="clip0_0_10952">
            <rect width="204" height="60" fill="white"/>
        </clipPath>
    </defs>
</svg>
