<svg width="204" height="60" viewBox="0 0 204 60" fill="none" xmlns="http://www.w3.org/2000/svg">
    <g clip-path="url(#clip0_0_10904)">
         <path fill-rule="evenodd" clip-rule="evenodd" d="M70.3508 34.5207V37.2466H76.8931C76.7906 38.5305 76.2568 39.742 75.3787 40.6843C74.0515 42.0366 72.2135 42.7629 70.3205 42.6834C66.3058 42.6834 63.0512 39.4288 63.0512 35.4141C63.0512 31.3995 66.3058 28.1449 70.3205 28.1449C72.1688 28.1175 73.9535 28.8193 75.2878 30.0985L77.2112 28.1752C75.3878 26.3718 72.9151 25.3783 70.3508 25.419C66.6844 25.2763 63.2336 27.151 61.3579 30.3046C59.4823 33.4582 59.4823 37.3852 61.3579 40.5388C63.2336 43.6924 66.6844 45.5671 70.3508 45.4245C72.971 45.5292 75.5113 44.5098 77.3323 42.6228C78.9227 40.8757 79.7701 38.578 79.6948 36.2167C79.7003 35.6485 79.6546 35.0808 79.5586 34.5207H70.3508ZM87.1307 32.5368C83.5676 32.5452 80.686 35.4403 80.6944 39.0033C80.7028 42.5664 83.5979 45.4479 87.161 45.4396C90.724 45.4312 93.6056 42.5361 93.5974 38.973C93.6223 37.2532 92.948 35.5969 91.729 34.3836C90.5098 33.1702 88.8503 32.5038 87.1307 32.5368ZM94.8088 39.0033C94.8004 35.4403 97.682 32.5452 101.245 32.5368C102.965 32.5038 104.624 33.1702 105.843 34.3836C107.062 35.5969 107.736 37.2532 107.711 38.973C107.72 42.5361 104.838 45.4312 101.275 45.4396C97.7123 45.4479 94.8172 42.5664 94.8088 39.0033ZM97.4467 40.6668C98.1382 42.1144 99.6443 42.9921 101.245 42.8802C102.249 42.8569 103.202 42.4288 103.886 41.6932C104.57 40.9575 104.929 39.9766 104.879 38.973C104.875 37.3687 103.891 35.9298 102.397 35.3446C100.904 34.7593 99.2041 35.1466 98.1113 36.3213C97.0187 37.4959 96.755 39.2191 97.4467 40.6668ZM83.3329 40.6668C84.0244 42.1144 85.5305 42.9921 87.131 42.8802C88.1354 42.8569 89.0879 42.4288 89.7724 41.6932C90.4567 40.9575 90.8149 39.9766 90.7655 38.973C90.7616 37.3687 89.7775 35.9298 88.2838 35.3446C86.7899 34.7593 85.0903 35.1466 83.9977 36.3213C82.9049 37.4959 82.6414 39.2191 83.3329 40.6668ZM133.457 32.5368C135.968 32.6292 138.161 34.2619 138.97 36.6408L139.288 37.3071L130.67 40.866C131.207 42.099 132.447 42.8751 133.79 42.8196C135.085 42.8322 136.289 42.1579 136.955 41.0478L139.151 42.5622C137.587 44.9319 134.65 45.9891 131.934 45.1596C129.218 44.3302 127.373 41.8123 127.399 38.973C127.295 37.3018 127.886 35.662 129.034 34.4427C130.181 33.2233 131.783 32.5335 133.457 32.5368ZM130.186 38.7912C130.124 37.8409 130.447 36.9057 131.082 36.1963C131.717 35.4868 132.612 35.0631 133.563 35.0203C134.561 34.9594 135.497 35.5024 135.941 36.3984L130.186 38.7912ZM126.021 45.0307H123.19V26.1004H126.021V45.0307ZM118.555 33.9754H118.449C117.593 33.0004 116.354 32.4474 115.057 32.461C111.619 32.6277 108.918 35.4633 108.918 38.9049C108.918 42.3463 111.619 45.1819 115.057 45.3487C116.357 45.3748 117.601 44.8195 118.449 43.8343H118.555V44.758C118.555 47.2266 117.238 48.5442 115.118 48.5442C113.669 48.5122 112.383 47.6091 111.862 46.2573L109.408 47.272C110.337 49.6042 112.607 51.1221 115.118 51.0883C118.434 51.0883 121.175 49.1347 121.175 44.3794V32.9152H118.555V33.9754ZM111.635 38.9806C111.635 41.044 113.24 42.7518 115.299 42.8802C116.284 42.8424 117.209 42.4033 117.862 41.6653C118.514 40.9273 118.835 39.9544 118.752 38.973C118.827 37.9951 118.502 37.0287 117.851 36.295C117.2 35.5614 116.279 35.1232 115.299 35.0809C113.24 35.2093 111.635 36.9171 111.635 38.9806ZM152.236 26.1003H145.451V45.0306H148.283V37.8522H152.236C154.435 38.0103 156.539 36.9261 157.688 35.0428C158.836 33.1596 158.836 30.7927 157.688 28.9096C156.539 27.0264 154.435 25.9422 152.236 26.1003ZM148.283 35.187H152.236L152.296 35.2173C153.454 35.2173 154.523 34.5996 155.102 33.5968C155.681 32.5941 155.681 31.3587 155.102 30.3559C154.523 29.3532 153.454 28.7355 152.296 28.7355H148.283V35.187ZM169.712 32.476C167.603 32.3461 165.62 33.4834 164.669 35.3686L167.168 36.4135C167.683 35.4835 168.698 34.9438 169.757 35.0355C170.483 34.9506 171.214 35.161 171.782 35.6196C172.352 36.078 172.714 36.7461 172.786 37.4736V37.6554C171.875 37.1767 170.861 36.9271 169.832 36.9285C167.137 36.9285 164.381 38.4429 164.381 41.1991C164.435 42.3828 164.966 43.494 165.854 44.2789C166.742 45.0637 167.909 45.4552 169.091 45.3637C170.537 45.4438 171.916 44.7376 172.696 43.5162H172.786V45.0306H175.511V37.7463C175.511 34.4296 172.999 32.5063 169.772 32.5063L169.712 32.476ZM167.153 41.2446C167.153 42.3804 168.44 42.8499 169.364 42.8499L169.424 42.8802C171.136 42.846 172.559 41.5522 172.756 39.8514C171.97 39.4128 171.08 39.193 170.182 39.2152C168.758 39.2152 167.153 39.7302 167.153 41.2446ZM185.447 32.9152L182.206 41.1234H182.116L178.753 32.9152H175.724L180.767 44.3946L177.89 50.7703H180.844L188.597 32.9152H185.447ZM162.821 45.0307H160.004V26.1004H162.821V45.0307Z" fill="white"/>
        <path d="M13.8628 11.0164C13.3638 11.6065 13.1091 12.365 13.151 13.1366V46.6356C13.0995 47.4086 13.3553 48.1706 13.8628 48.7559L13.9688 48.8769L32.7325 30.1133V29.6589L13.9688 10.9104L13.8628 11.0164Z" fill="url(#paint0_linear_0_10904)"/>
        <path d="M38.9415 36.368L32.7324 30.1134V29.6591L38.9415 23.4045L39.0779 23.4954L46.5137 27.7055C48.6339 28.9019 48.6339 30.8706 46.5137 32.0822L39.1082 36.2922L38.9415 36.368Z" fill="url(#paint1_linear_0_10904)"/>
        <path d="M39.1238 36.2774L32.733 29.8865L13.8633 48.7562C14.7462 49.5422 16.0641 49.5867 16.9982 48.8622L39.1238 36.2774Z" fill="url(#paint2_linear_0_10904)"/>
        <path d="M39.1238 23.4957L16.9982 10.9259C16.0697 10.191 14.7475 10.2293 13.8633 11.0168L32.733 29.8864L39.1238 23.4957Z" fill="url(#paint3_linear_0_10904)"/>
        <path opacity="0.2" d="M38.9421 36.1411L16.9982 48.6351C16.1018 49.3116 14.8656 49.3116 13.9693 48.6351L13.8633 48.7411L13.9693 48.8623C14.8656 49.5387 16.1018 49.5387 16.9982 48.8623L39.1238 36.2775L38.9421 36.1411Z" fill="#090A0A"/>
        <path opacity="0.12" d="M13.8625 48.5441C13.3761 47.9433 13.1377 47.1794 13.1962 46.4087V46.6359C13.1447 47.4087 13.4005 48.1707 13.9079 48.756L14.0139 48.65L13.8625 48.5441Z" fill="#090A0A"/>
        <path opacity="0.12" d="M46.5155 31.8552L38.9434 36.141L39.0796 36.2774L46.5155 32.0673C47.4095 31.6892 48.0254 30.8526 48.1208 29.8865C47.9288 30.7605 47.3329 31.4912 46.5155 31.8552Z" fill="#090A0A"/>
        <path opacity="0.25" d="M16.9991 11.1378L46.5152 27.9177C47.3325 28.2816 47.9285 29.0124 48.1205 29.8864C48.0251 28.9203 47.4093 28.0837 46.5152 27.7056L16.9991 10.9258C14.8939 9.71427 13.1523 10.7138 13.1523 13.1369V13.364C13.1978 10.9409 14.8939 9.94143 16.9991 11.1378Z" fill="white"/>
        <path fill-rule="evenodd" clip-rule="evenodd" d="M60.7207 21.2084H61.8262V19.2851H68.7169V21.1932H69.8376V18.1644H68.823V10.1985H62.7652V14.7418C62.9188 15.9944 62.5147 17.2512 61.6596 18.1796H60.7207V21.2084ZM63.0681 18.2099C63.6981 17.1669 63.9988 15.9584 63.9313 14.7418V11.3192H67.6114V18.2099H63.0681Z" fill="white"/>
        <path d="M61.8262 21.2084V21.5834H62.2012V21.2084H61.8262ZM60.7207 21.2084H60.3457V21.5834H60.7207V21.2084ZM61.8262 19.2851V18.9101H61.4512V19.2851H61.8262ZM68.7169 19.2851H69.0919V18.9101H68.7169V19.2851ZM68.7169 21.1932H68.3419V21.5682H68.7169V21.1932ZM69.8375 21.1932V21.5682H70.2125V21.1932H69.8375ZM69.8375 18.1644H70.2125V17.7894H69.8375V18.1644ZM68.8229 18.1644H68.4479V18.5394H68.8229V18.1644ZM68.8229 10.1985H69.1979V9.82349H68.8229V10.1985ZM62.7652 10.1985V9.82349H62.3902V10.1985H62.7652ZM62.7652 14.7418H62.3902V14.7647L62.3929 14.7874L62.7652 14.7418ZM61.6596 18.1796V18.5546H61.8241L61.9354 18.4335L61.6596 18.1796ZM60.7207 18.1796V17.8046H60.3457V18.1796H60.7207ZM63.9313 14.7418H63.5557L63.5569 14.7626L63.9313 14.7418ZM63.0681 18.2099L62.747 18.0159L62.4034 18.5849H63.0681V18.2099ZM63.9313 11.3192V10.9442H63.5563V11.3192H63.9313ZM67.6114 11.3192H67.9864V10.9442H67.6114V11.3192ZM67.6114 18.2099V18.5849H67.9864V18.2099H67.6114ZM61.8262 20.8334H60.7207V21.5834H61.8262V20.8334ZM61.4512 19.2851V21.2084H62.2012V19.2851H61.4512ZM68.7169 18.9101H61.8262V19.6601H68.7169V18.9101ZM69.0919 21.1932V19.2851H68.3419V21.1932H69.0919ZM69.8375 20.8182H68.7169V21.5682H69.8375V20.8182ZM69.4625 18.1644V21.1932H70.2125V18.1644H69.4625ZM68.8229 18.5394H69.8375V17.7894H68.8229V18.5394ZM68.4479 10.1985V18.1644H69.1979V10.1985H68.4479ZM62.7652 10.5735H68.8229V9.82349H62.7652V10.5735ZM63.1402 14.7418V10.1985H62.3902V14.7418H63.1402ZM61.9354 18.4335C62.865 17.4245 63.3045 16.058 63.1374 14.6961L62.3929 14.7874C62.5333 15.9308 62.1643 17.0781 61.3839 17.9255L61.9354 18.4335ZM60.7207 18.5546H61.6596V17.8046H60.7207V18.5546ZM61.0957 21.2084V18.1796H60.3457V21.2084H61.0957ZM63.5569 14.7626C63.6202 15.9038 63.338 17.0376 62.747 18.0159L63.3891 18.4037C64.0579 17.2962 64.3774 16.0128 64.3057 14.721L63.5569 14.7626ZM63.5563 11.3192V14.7418H64.3063V11.3192H63.5563ZM67.6114 10.9442H63.9313V11.6942H67.6114V10.9442ZM67.9864 18.2099V11.3192H67.2364V18.2099H67.9864ZM63.0681 18.5849H67.6114V17.8349H63.0681V18.5849Z" fill="white"/>
        <path fill-rule="evenodd" clip-rule="evenodd" d="M75.6137 19.4837C76.8611 19.4837 78.0572 18.9873 78.938 18.1041C79.8338 17.2187 80.3221 16.0011 80.2858 14.742C80.3078 13.4856 79.8218 12.2734 78.938 11.38C78.0572 10.4969 76.8611 10.0005 75.6137 10.0005C74.3665 10.0005 73.1704 10.4969 72.2896 11.38C70.4894 13.26 70.4894 16.2242 72.2896 18.1041C73.1704 18.9873 74.3665 19.4837 75.6137 19.4837ZM75.6061 18.3767C74.6762 18.3896 73.7825 18.0168 73.1375 17.3469C71.804 15.8664 71.804 13.6178 73.1375 12.1373C73.7825 11.4674 74.6762 11.0946 75.6061 11.1075C76.5371 11.089 77.4329 11.4627 78.0748 12.1373C79.4296 13.6095 79.4296 15.8747 78.0748 17.3469C77.4329 18.0215 76.5371 18.3951 75.6061 18.3767Z" fill="white"/>
        <path d="M78.938 18.1041L78.6743 17.8374L78.6725 17.8392L78.938 18.1041ZM80.2857 14.742L79.9104 14.7355L79.911 14.7528L80.2857 14.742ZM78.938 11.38L79.2045 11.1163L79.2035 11.1152L78.938 11.38ZM72.2895 11.38L72.0239 11.1152L72.0186 11.1207L72.2895 11.38ZM72.2895 18.1041L72.0186 18.3635L72.024 18.3689L72.2895 18.1041ZM73.1375 17.3469L72.8588 17.598L72.8673 17.607L73.1375 17.3469ZM75.606 18.3767L75.6135 18.0015L75.6009 18.0017L75.606 18.3767ZM73.1375 12.1373L72.8672 11.877L72.8589 11.8863L73.1375 12.1373ZM75.606 11.1075L75.6009 11.4826L75.6135 11.4824L75.606 11.1075ZM78.0747 12.1373L78.3506 11.8833L78.3464 11.8788L78.0747 12.1373ZM78.0747 17.3469L78.3464 17.6054L78.3506 17.6009L78.0747 17.3469ZM78.6725 17.8392C77.862 18.6519 76.7615 19.1087 75.6137 19.1087V19.8587C76.9607 19.8587 78.2523 19.3226 79.2035 18.3689L78.6725 17.8392ZM79.911 14.7528C79.9442 15.908 79.4963 17.025 78.6743 17.8374L79.2015 18.3708C80.1714 17.4123 80.6999 16.0943 80.6606 14.7313L79.911 14.7528ZM78.6714 11.6438C79.4841 12.4653 79.931 13.58 79.9109 14.7355L80.6607 14.7486C80.6844 13.3911 80.1594 12.0815 79.2045 11.1163L78.6714 11.6438ZM75.6137 10.3755C76.7615 10.3755 77.862 10.8322 78.6725 11.6448L79.2035 11.1152C78.2523 10.1615 76.9607 9.62549 75.6137 9.62549V10.3755ZM72.555 11.6448C73.3655 10.8322 74.466 10.3755 75.6137 10.3755V9.62549C74.2668 9.62549 72.9752 10.1615 72.024 11.1152L72.555 11.6448ZM72.5604 17.8448C70.8992 16.1099 70.8992 13.3743 72.5604 11.6394L72.0186 11.1207C70.0797 13.1457 70.0797 16.3385 72.0186 18.3635L72.5604 17.8448ZM75.6137 19.1087C74.466 19.1087 73.3655 18.6519 72.555 17.8392L72.024 18.3689C72.9752 19.3226 74.2668 19.8587 75.6137 19.8587V19.1087ZM72.8673 17.607C73.5843 18.3516 74.5778 18.7661 75.6113 18.7517L75.6009 18.0017C74.7747 18.0132 73.9808 17.682 73.4076 17.0868L72.8673 17.607ZM72.8589 11.8863C71.3969 13.5095 71.3969 15.9747 72.8589 17.5979L73.4162 17.096C72.2111 15.758 72.2111 13.7261 73.4162 12.3882L72.8589 11.8863ZM75.6113 10.7325C74.5778 10.7181 73.5843 11.1326 72.8673 11.8772L73.4076 12.3974C73.9808 11.8022 74.7747 11.471 75.6009 11.4824L75.6113 10.7325ZM78.3464 11.8788C77.6319 11.1279 76.6349 10.712 75.5987 10.7325L75.6135 11.4824C76.4391 11.466 77.2337 11.7975 77.8029 12.3957L78.3464 11.8788ZM78.3506 17.6009C79.8375 15.9851 79.8375 13.4991 78.3506 11.8833L77.7987 12.3912C79.0215 13.7199 79.0215 15.7643 77.7987 17.093L78.3506 17.6009ZM75.5987 18.7517C76.6349 18.7722 77.6319 18.3563 78.3464 17.6054L77.8029 17.0885C77.2337 17.6867 76.4391 18.0182 75.6135 18.0018L75.5987 18.7517Z" fill="white"/>
        <path d="M86.1629 19.4822C84.9248 19.5015 83.7323 19.0148 82.8616 18.1343C81.0461 16.2371 81.0461 13.2469 82.8616 11.3497C83.7469 10.4538 84.9646 9.96568 86.2235 10.0019C87.5083 9.96553 88.7378 10.5244 89.5552 11.5163L88.7527 12.3038C88.1489 11.5276 87.2059 11.0928 86.2235 11.1377C85.2814 11.1137 84.3712 11.481 83.7097 12.1524C82.3579 13.6374 82.3579 15.9072 83.7097 17.3922C84.3712 18.0636 85.2814 18.431 86.2235 18.407C87.2768 18.377 88.2632 17.8838 88.9192 17.0591L89.737 17.8617C89.3221 18.359 88.8058 18.7617 88.2226 19.043C87.5783 19.344 86.8739 19.4942 86.1629 19.4822Z" fill="white" stroke="white" stroke-width="0.5"/>
        <path d="M94.4916 19.2851H93.3256V11.3192H90.7812V10.1985H97.0206V11.3192H94.4916V19.2851Z" fill="white" stroke="white" stroke-width="0.5"/>
        <path d="M105.047 10.1985L101.609 17.8614C101.44 18.4833 101.007 18.9996 100.424 19.2737C99.8405 19.5477 99.1664 19.5519 98.5801 19.2851L98.8829 18.2097C99.0682 18.314 99.2762 18.3711 99.4886 18.3764C99.7127 18.3876 99.9349 18.3294 100.125 18.2097C100.309 18.0567 100.45 17.8584 100.534 17.6343L100.867 16.9074L97.8379 10.1985H99.2161L101.457 15.4082L103.668 10.1985H105.047Z" fill="white" stroke="white" stroke-width="0.5"/>
        <path d="M106.363 19.2851V10.1985H112.936V19.2851H111.77V11.3192H107.529V19.2851H106.363Z" fill="white" stroke="white" stroke-width="0.5"/>
        <path d="M115.012 19.2851V10.1985H116.178V14.0906H120.721V10.1985H121.902V19.2851H120.721V15.1809H116.178V19.2851H115.012Z" fill="white" stroke="white" stroke-width="0.5"/>
        <path fill-rule="evenodd" clip-rule="evenodd" d="M128.082 19.4849C129.332 19.4849 130.53 18.9882 131.414 18.1041H131.399C133.183 16.218 133.183 13.2661 131.399 11.38C130.518 10.4969 129.322 10.0005 128.075 10.0005C126.827 10.0005 125.631 10.4969 124.75 11.38C122.95 13.26 122.95 16.2242 124.75 18.1041C125.634 18.9882 126.832 19.4849 128.082 19.4849ZM128.082 18.3767C127.151 18.3951 126.255 18.0215 125.613 17.3469C124.259 15.8747 124.259 13.6095 125.613 12.1373C126.255 11.4627 127.151 11.089 128.082 11.1075C129.012 11.0946 129.906 11.4674 130.551 12.1373C131.884 13.6178 131.884 15.8664 130.551 17.3469C129.906 18.0168 129.012 18.3896 128.082 18.3767Z" fill="white"/>
        <path d="M131.414 18.1041L131.679 18.3692L132.319 17.7291H131.414V18.1041ZM131.399 18.1041L131.126 17.8464L130.528 18.4791H131.399V18.1041ZM131.399 11.38L131.671 11.1222L131.664 11.1152L131.399 11.38ZM124.75 11.38L124.485 11.1152L124.48 11.1207L124.75 11.38ZM124.75 18.1041L124.48 18.3635L124.485 18.3692L124.75 18.1041ZM125.614 17.3469L125.338 17.6009L125.342 17.6054L125.614 17.3469ZM128.082 18.3767L128.087 18.0015L128.075 18.0018L128.082 18.3767ZM125.614 12.1373L125.342 11.8787L125.338 11.8833L125.614 12.1373ZM128.082 11.1075L128.075 11.4826L128.087 11.4824L128.082 11.1075ZM130.551 12.1373L130.83 11.8861L130.821 11.8772L130.551 12.1373ZM130.551 17.3469L130.821 17.6072L130.829 17.5979L130.551 17.3469ZM131.149 17.8391C130.336 18.6528 129.232 19.1099 128.082 19.1099V19.8599C129.432 19.8599 130.725 19.3236 131.679 18.3692L131.149 17.8391ZM131.399 18.4791H131.414V17.7291H131.399V18.4791ZM131.126 11.6378C132.774 13.3793 132.774 16.1049 131.126 17.8464L131.671 18.3618C133.593 16.3311 133.593 13.153 131.671 11.1223L131.126 11.6378ZM128.075 10.3755C129.222 10.3755 130.323 10.8322 131.133 11.6448L131.664 11.1152C130.713 10.1615 129.422 9.62549 128.075 9.62549V10.3755ZM125.016 11.6448C125.826 10.8322 126.927 10.3755 128.075 10.3755V9.62549C126.728 9.62549 125.436 10.1615 124.485 11.1152L125.016 11.6448ZM125.021 17.8448C123.36 16.1099 123.36 13.3743 125.021 11.6394L124.48 11.1207C122.541 13.1457 122.541 16.3385 124.48 18.3635L125.021 17.8448ZM128.082 19.1099C126.932 19.1099 125.829 18.6528 125.016 17.8391L124.485 18.3692C125.439 19.3236 126.733 19.8599 128.082 19.8599V19.1099ZM125.342 17.6054C126.056 18.3563 127.053 18.7722 128.09 18.7517L128.075 18.0018C127.249 18.0182 126.454 17.6867 125.885 17.0885L125.342 17.6054ZM125.338 11.8833C123.851 13.4991 123.851 15.9851 125.338 17.6009L125.89 17.093C124.667 15.7643 124.667 13.7199 125.89 12.3912L125.338 11.8833ZM128.09 10.7325C127.053 10.712 126.056 11.1279 125.342 11.8788L125.885 12.3957C126.454 11.7975 127.249 11.466 128.075 11.4824L128.09 10.7325ZM130.821 11.8772C130.104 11.1326 129.111 10.7181 128.077 10.7325L128.087 11.4824C128.914 11.471 129.708 11.8022 130.281 12.3974L130.821 11.8772ZM130.829 17.5979C132.291 15.9747 132.291 13.5095 130.829 11.8863L130.272 12.3882C131.477 13.7261 131.477 15.758 130.272 17.096L130.829 17.5979ZM128.077 18.7517C129.111 18.7661 130.104 18.3516 130.821 17.607L130.281 17.0868C129.708 17.682 128.914 18.0132 128.087 18.0017L128.077 18.7517Z" fill="white"/>
        <path fill-rule="evenodd" clip-rule="evenodd" d="M137.516 19.2852V10.1986H140.802C141.483 10.1918 142.142 10.4403 142.65 10.8953C143.162 11.3399 143.45 11.9889 143.437 12.6671C143.441 13.0751 143.325 13.4752 143.104 13.8181C142.88 14.1433 142.571 14.4001 142.21 14.5602C142.648 14.7097 143.032 14.9833 143.316 15.3477C143.594 15.7188 143.743 16.1709 143.74 16.6349C143.756 17.3417 143.456 18.0189 142.922 18.4826C142.397 18.9716 141.702 19.2377 140.984 19.2246L137.516 19.2852ZM138.681 14.0908H140.802C141.204 14.114 141.594 13.9522 141.862 13.6516C142.119 13.3999 142.266 13.057 142.271 12.6975C142.285 12.3368 142.16 11.9845 141.922 11.7131C141.665 11.4271 141.292 11.2716 140.908 11.2891H138.727L138.681 14.0908ZM141.044 18.1644H138.681V15.1811H140.983C141.411 15.17 141.824 15.3405 142.119 15.6506C142.383 15.9237 142.534 16.2858 142.543 16.6652C142.542 17.0478 142.396 17.4158 142.134 17.6951C141.859 18.0063 141.459 18.1784 141.044 18.1644Z" fill="white"/>
        <path d="M137.516 10.1989V9.82386H137.141V10.1989H137.516ZM137.516 19.2855H137.141V19.6671L137.522 19.6603L137.516 19.2855ZM140.802 10.1989V10.5739L140.806 10.5738L140.802 10.1989ZM142.65 10.8955L142.399 11.1747L142.404 11.1787L142.65 10.8955ZM143.437 12.6674L143.062 12.66L143.062 12.6707L143.437 12.6674ZM143.104 13.8183L143.413 14.0309L143.419 14.0215L143.104 13.8183ZM142.21 14.5604L142.058 14.2176L141.184 14.6057L142.089 14.9152L142.21 14.5604ZM143.316 15.348L143.616 15.1228L143.612 15.1173L143.316 15.348ZM143.74 16.6351L143.365 16.6324L143.365 16.6435L143.74 16.6351ZM142.922 18.4828L142.676 18.1995L142.667 18.2082L142.922 18.4828ZM140.984 19.2249L140.991 18.8497L140.977 18.8499L140.984 19.2249ZM140.802 14.091L140.823 13.7166L140.812 13.716H140.802V14.091ZM138.681 14.091L138.307 14.0849L138.3 14.466H138.681V14.091ZM141.862 13.6518L141.599 13.384L141.59 13.3929L141.582 13.4024L141.862 13.6518ZM142.271 12.6977L141.896 12.6828L141.896 12.6924L142.271 12.6977ZM141.922 11.7133L142.204 11.4661L142.201 11.4622L141.922 11.7133ZM140.908 11.2893V11.6647L140.925 11.6639L140.908 11.2893ZM138.727 11.2893V10.9143H138.358L138.352 11.2832L138.727 11.2893ZM138.681 18.1647H138.306V18.5397H138.681V18.1647ZM141.044 18.1647L141.057 17.7897H141.044V18.1647ZM138.681 15.1813V14.8063H138.306V15.1813H138.681ZM140.983 15.1813V15.5565L140.993 15.5562L140.983 15.1813ZM142.119 15.6508L141.848 15.9094L141.849 15.9111L142.119 15.6508ZM142.543 16.6654L142.918 16.6668L142.918 16.6563L142.543 16.6654ZM142.134 17.6953L141.861 17.4388L141.853 17.4468L142.134 17.6953ZM137.141 10.1989V19.2855H137.891V10.1989H137.141ZM140.802 9.82386H137.516V10.5739H140.802V9.82386ZM142.9 10.6164C142.323 10.0988 141.573 9.8161 140.798 9.82389L140.806 10.5738C141.393 10.5679 141.962 10.7823 142.399 11.1747L142.9 10.6164ZM143.812 12.6747C143.827 11.8853 143.492 11.1298 142.895 10.6123L142.404 11.1787C142.832 11.5504 143.073 12.0931 143.062 12.66L143.812 12.6747ZM143.419 14.0215C143.68 13.617 143.816 13.1452 143.812 12.664L143.062 12.6707C143.065 13.0055 142.97 13.3338 142.789 13.6152L143.419 14.0215ZM142.363 14.9032C142.787 14.715 143.15 14.413 143.413 14.0308L142.795 13.6059C142.611 13.8739 142.356 14.0857 142.058 14.2176L142.363 14.9032ZM143.612 15.1173C143.283 14.6955 142.838 14.3787 142.332 14.2056L142.089 14.9152C142.457 15.0412 142.781 15.2716 143.02 15.5785L143.612 15.1173ZM144.115 16.6378C144.119 16.0918 143.944 15.5596 143.616 15.1228L143.016 15.573C143.245 15.8784 143.368 16.2507 143.365 16.6324L144.115 16.6378ZM143.168 18.7659C143.786 18.229 144.133 17.4451 144.115 16.6269L143.365 16.6435C143.378 17.2389 143.126 17.8092 142.676 18.1996L143.168 18.7659ZM140.977 19.5997C141.792 19.6146 142.581 19.3126 143.178 18.7573L142.667 18.2082C142.212 18.6312 141.611 18.8613 140.991 18.8499L140.977 19.5997ZM137.522 19.6603L140.99 19.5997L140.977 18.8499L137.509 18.9105L137.522 19.6603ZM140.802 13.716H138.681V14.466H140.802V13.716ZM141.582 13.4024C141.39 13.6175 141.111 13.7333 140.823 13.7166L140.78 14.4654C141.296 14.4952 141.798 14.2874 142.142 13.9012L141.582 13.4024ZM141.896 12.6924C141.892 12.953 141.786 13.2016 141.599 13.384L142.124 13.9197C142.452 13.5988 142.639 13.1615 142.646 12.7031L141.896 12.6924ZM141.64 11.9606C141.815 12.1597 141.906 12.4182 141.896 12.6828L142.645 12.7126C142.663 12.2559 142.506 11.8097 142.204 11.4661L141.64 11.9606ZM140.925 11.6639C141.197 11.6515 141.461 11.7618 141.644 11.9644L142.201 11.4622C141.868 11.093 141.387 10.8921 140.891 10.9147L140.925 11.6639ZM138.727 11.6643H140.908V10.9143H138.727V11.6643ZM139.056 14.0971L139.102 11.2954L138.352 11.2832L138.307 14.0849L139.056 14.0971ZM138.681 18.5397H141.044V17.7897H138.681V18.5397ZM138.306 15.1813V18.1647H139.056V15.1813H138.306ZM140.983 14.8063H138.681V15.5563H140.983V14.8063ZM142.391 15.3921C142.023 15.0054 141.508 14.7926 140.974 14.8064L140.993 15.5562C141.315 15.5478 141.626 15.6762 141.848 15.9094L142.391 15.3921ZM142.918 16.6563C142.907 16.183 142.718 15.7312 142.389 15.3904L141.849 15.9111C142.048 16.1166 142.161 16.3891 142.168 16.6746L142.918 16.6563ZM142.408 17.9515C142.734 17.6031 142.917 17.1441 142.918 16.6668L142.168 16.6641C142.167 16.9521 142.057 17.2288 141.861 17.439L142.408 17.9515ZM141.031 18.5395C141.558 18.5572 142.066 18.3387 142.415 17.9437L141.853 17.4468C141.652 17.6743 141.36 17.8002 141.057 17.79L141.031 18.5395Z" fill="white"/>
    </g>
    <defs>
        <linearGradient id="paint0_linear_0_10904" x1="24.5113" y1="-11.8392" x2="-5.53596" y2="-3.84124" gradientUnits="userSpaceOnUse">
            <stop stop-color="#00A0FF"/>
            <stop offset="0.01" stop-color="#00A1FF"/>
            <stop offset="0.26" stop-color="#00BEFF"/>
            <stop offset="0.51" stop-color="#00D2FF"/>
            <stop offset="0.76" stop-color="#00DFFF"/>
            <stop offset="1" stop-color="#00E3FF"/>
        </linearGradient>
        <linearGradient id="paint1_linear_0_10904" x1="49.2851" y1="14.4387" x2="12.6512" y2="14.4387" gradientUnits="userSpaceOnUse">
            <stop stop-color="#FFE000"/>
            <stop offset="0.41" stop-color="#FFBD00"/>
            <stop offset="0.78" stop-color="#FFA500"/>
            <stop offset="1" stop-color="#FF9C00"/>
        </linearGradient>
        <linearGradient id="paint2_linear_0_10904" x1="13.3295" y1="20.0721" x2="-10.843" y2="60.6575" gradientUnits="userSpaceOnUse">
            <stop stop-color="#FF3A44"/>
            <stop offset="1" stop-color="#C31162"/>
        </linearGradient>
        <linearGradient id="paint3_linear_0_10904" x1="-0.864588" y1="5.80551" x2="9.92161" y2="23.9298" gradientUnits="userSpaceOnUse">
            <stop stop-color="#32A071"/>
            <stop offset="0.07" stop-color="#2DA771"/>
            <stop offset="0.48" stop-color="#15CF74"/>
            <stop offset="0.8" stop-color="#06E775"/>
            <stop offset="1" stop-color="#00F076"/>
        </linearGradient>
        <clipPath id="clip0_0_10904">
            <rect width="204" height="60" fill="white"/>
        </clipPath>
    </defs>
</svg>