<svg width="150" height="60" viewBox="0 0 150 60" fill="none" xmlns="http://www.w3.org/2000/svg">
    <g clip-path="url(#clip0_0_10990)">

        <path fill-rule="evenodd" clip-rule="evenodd" d="M41.3802 24.0038C42.3468 24.0038 43.2731 23.993 44.199 24.008C44.6789 24.0158 44.9436 24.347 44.9073 24.8505C44.8262 25.9505 44.7398 27.0699 44.6543 28.1855H49.7103C49.8134 26.8115 49.9169 25.4108 50.0216 24.0162H53.5869L52.7345 35.7791C52.727 35.9111 52.7199 36.0014 52.5528 36C51.4305 35.9936 50.3085 35.9961 49.1417 35.9961C49.2698 34.2317 49.3971 32.4794 49.5255 30.7106H44.4711C44.3427 32.4587 44.2139 34.2063 44.0838 35.9751H40.5L41.3802 24.0038Z" fill="white"/>
        <path fill-rule="evenodd" clip-rule="evenodd" d="M80.1836 35.5559C80.3534 32.8706 80.522 30.1988 80.6921 27.5105C82.569 27.2936 83.8358 27.1512 85.3758 27.1287C87.5493 27.0968 90.3161 26.8724 90.3153 29.6426L89.9586 35.5526H86.6912L87.0284 29.8845C87.065 28.8975 86.0492 28.8914 85.3217 28.9226C84.8432 28.9434 84.3666 28.9983 83.8667 29.0411C83.7336 31.2231 83.6009 33.3831 83.4674 35.5559H80.1836Z" fill="white"/>
        <path fill-rule="evenodd" clip-rule="evenodd" d="M72.1149 32.2685C72.1333 33.3739 73.2814 33.8755 74.1742 34.0424C75.6445 34.3169 77.4132 33.9685 78.9255 33.7574L78.6549 35.5363C76.7335 36.1055 72.7972 36.3082 70.7139 35.2175C68.8645 34.2497 68.3616 32.0773 69.1285 30.2192C69.9748 28.1687 72.126 27.1891 74.1885 27.116C75.7432 27.0605 77.3397 27.4936 78.3076 28.5211C79.1185 29.3825 79.528 30.6632 79.2504 32.2685C77.023 32.2685 74.3422 32.2685 72.1149 32.2685ZM76.4044 30.6008C76.4067 29.3887 75.5001 28.8089 74.4543 28.8313C73.4856 28.8523 72.4267 29.4101 72.274 30.6008H76.4044Z" fill="white"/>
        <path fill-rule="evenodd" clip-rule="evenodd" d="M103.779 32.2685C103.797 33.3739 104.946 33.8755 105.838 34.0424C107.308 34.3169 109.077 33.9685 110.589 33.7574L110.319 35.5363C108.397 36.1055 104.461 36.3082 102.378 35.2175C100.529 34.2497 100.025 32.0773 100.793 30.2192C101.639 28.1687 103.79 27.1891 105.852 27.116C107.407 27.0605 109.003 27.4936 109.971 28.5211C110.782 29.3825 111.192 30.6632 110.914 32.2685C108.687 32.2685 106.006 32.2685 103.779 32.2685ZM108.068 30.6008C108.071 29.3887 107.164 28.8089 106.118 28.8313C105.149 28.8523 104.091 29.4101 103.938 30.6008H108.068Z" fill="white"/>
        <path fill-rule="evenodd" clip-rule="evenodd" d="M68.109 29.3796C66.7964 29.1445 64.278 28.7049 63.0828 29.0856C62.3613 29.3956 63.3995 29.8752 63.6359 29.9919C64.6572 30.496 65.9939 30.9819 66.9782 31.5996C68.8137 32.4945 69.149 35.1673 65.9561 35.8135C64.1957 36.1827 60.9884 35.9311 59.0742 35.6863L59.2169 33.7411C61.6233 34.1422 62.3621 34.1223 64.1267 34.1214C64.412 34.1214 64.8533 33.7221 64.4673 33.493C63.0318 32.722 60.7683 32.1228 59.75 30.9912C58.9568 30.1107 59.088 28.7805 60.0227 28.0701C61.922 26.6262 66.3855 27.1285 68.2794 27.5563L68.109 29.3796Z" fill="white"/>
        <path fill-rule="evenodd" clip-rule="evenodd" d="M99.769 29.3796C98.4567 29.1445 95.9382 28.7049 94.7434 29.0856C94.0215 29.3956 95.0599 29.8752 95.296 29.9919C96.3172 30.496 97.654 30.9819 98.6383 31.5996C100.474 32.4945 100.809 35.1673 97.6162 35.8135C95.8558 36.1827 92.6485 35.9311 90.7344 35.6863L90.877 33.7411C93.2835 34.1422 94.0222 34.1223 95.7868 34.1214C96.0721 34.1214 96.5133 33.7221 96.1278 33.493C94.6918 32.722 92.4285 32.1228 91.4103 30.9912C90.6169 30.1107 90.7482 28.7805 91.6828 28.0701C93.5821 26.6262 98.0457 27.1285 99.9396 27.5563L99.769 29.3796Z" fill="white"/>
        <path fill-rule="evenodd" clip-rule="evenodd" d="M54.6545 27.1113H58.2314C58.0163 29.9331 57.8016 32.742 57.587 35.5559H54.0098C54.2252 32.732 54.4394 29.9228 54.6545 27.1113Z" fill="white"/>
        <path fill-rule="evenodd" clip-rule="evenodd" d="M54.8535 26.2222C54.9128 25.4691 54.9692 24.7477 55.0274 24.0099L57.9006 24C58.9599 24.0009 58.6203 24.759 58.5254 26.2222H54.8535Z" fill="white"/>
    </g>
    <defs>
        <clipPath id="clip0_0_10990">
            <rect width="150" height="60" fill="white"/>
        </clipPath>
    </defs>
</svg>
