<svg width="150" height="60" viewBox="0 0 150 60" fill="none" xmlns="http://www.w3.org/2000/svg">
    <g clip-path="url(#clip0_0_10983)">

        <path d="M62.775 39C67.6171 39 71.55 34.9752 71.55 30.002C71.55 25.0286 67.6171 21 62.775 21C57.9252 21 54 25.0286 54 30.002C54 34.9752 57.9252 39 62.775 39Z" fill="white"/>
        <path d="M62.5488 25.9497V34.0497H65.249V33.3215H63.327V25.9497H62.5488Z" fill="#202325"/>
        <path d="M60.0762 28.1997C60.699 28.1997 61.2012 27.6938 61.2012 27.0759C61.2012 26.4576 60.699 25.9497 60.0762 25.9497C59.4532 25.9497 58.9512 26.4576 58.9512 27.0759C58.9512 27.6942 59.4532 28.1997 60.0762 28.1997Z" fill="#202325"/>
        <path d="M63.1315 22.3612C63.0388 22.3564 62.8625 22.3506 62.7784 22.3506C58.6838 22.3506 55.3516 25.7857 55.3516 30.0025C55.3516 32.0508 56.1239 33.9706 57.5227 35.4144C58.9273 36.8547 60.7912 37.6506 62.7784 37.6506C64.7578 37.6506 66.6212 36.8547 68.0233 35.4144C69.4256 33.9706 70.2016 32.0508 70.2016 30.0025V29.6622H69.9011H64.8985V30.3666H69.4942C69.4942 30.382 69.4942 30.4567 69.491 30.4761C69.2573 34.081 66.3358 36.9363 62.7784 36.9363C60.9776 36.9363 59.2891 36.2146 58.0183 34.9041C56.7433 33.5991 56.0408 31.8604 56.0408 30.0024C56.0408 28.155 56.7433 26.4073 58.0183 25.0981C59.2891 23.7903 60.9776 23.0686 62.7784 23.0686C62.8559 23.0686 63.0445 23.0686 63.1315 23.0734V22.3612Z" fill="#202325"/>
        <path fill-rule="evenodd" clip-rule="evenodd" d="M92.0732 31.1774H89.9286V28.9763H94.4987V34.7012C93.5588 35.3826 91.8282 35.8497 90.0606 35.8497C86.2041 35.8497 84.455 33.7079 84.455 29.7551C84.455 25.7831 86.3919 23.6997 90.0792 23.6997C91.715 23.6997 93.4644 24.1476 94.4616 25.6263L92.8245 27.1847C92.2046 26.3667 91.4523 25.938 90.1353 25.938C87.7655 25.938 87.0137 27.3612 87.0137 29.7749C87.0137 32.3058 87.8031 33.552 90.173 33.552C90.9066 33.552 91.6778 33.3966 92.0732 33.2408V31.1774ZM76.0488 23.8733H78.6819V33.3774H84.1362V35.6747H76.0488V23.8733Z" fill="white"/>
    </g>
    <defs>
        <clipPath id="clip0_0_10983">
            <rect width="150" height="60" fill="white"/>
        </clipPath>
    </defs>
</svg>
