<svg width="150" height="60" viewBox="0 0 150 60" fill="none" xmlns="http://www.w3.org/2000/svg">
    <g clip-path="url(#clip0_0_11000)">

        <path fill-rule="evenodd" clip-rule="evenodd" d="M57.8106 40.5H38.3014C37.8588 40.5 37.5 40.1432 37.5 39.7028V20.2971C37.5 19.8567 37.8588 19.5 38.3014 19.5H57.8106C58.2532 19.5 58.612 19.8567 58.612 20.2971V39.7028C58.612 40.1432 58.2532 40.5 57.8106 40.5ZM48.3835 26.1048H42.0569C41.9858 26.1048 41.9286 26.1611 41.9286 26.2304V33.7683C41.9286 33.8371 41.9858 33.8934 42.0569 33.8934H43.7182C43.7889 33.8934 43.8476 33.8371 43.8476 33.7683V27.8521C43.8476 27.7839 43.9047 27.7272 43.9758 27.7272H47.5545C48.5607 27.7272 48.8464 28.4938 48.8464 28.9884V33.7683C48.8464 33.8371 48.9042 33.8934 48.9753 33.8934H50.6356C50.7063 33.8934 50.7643 33.8371 50.7643 33.7683V28.4209C50.7643 27.9798 50.7109 27.3456 50.1388 26.7873C49.5402 26.2046 48.994 26.1048 48.3835 26.1048ZM47.2191 29.1072H45.4756C45.4045 29.1072 45.3462 29.1635 45.3462 29.2325V33.7689C45.3462 33.8375 45.4045 33.8937 45.4756 33.8937H47.2191C47.2896 33.8937 47.3473 33.8375 47.3473 33.7689V29.2325C47.3473 29.1635 47.2896 29.1072 47.2191 29.1072ZM54.0541 26.1048H52.3939C52.3228 26.1048 52.2652 26.1611 52.2652 26.2304V33.7683C52.2652 33.8371 52.3228 33.8934 52.3939 33.8934H54.0541C54.1245 33.8934 54.1828 33.8371 54.1828 33.7683V26.2304C54.1828 26.1611 54.1245 26.1048 54.0541 26.1048Z" fill="white"/>
        <path fill-rule="evenodd" clip-rule="evenodd" d="M80.0927 35.7271V26.6857L76.3616 35.7271H76.0238L72.2774 26.6857V35.7271H71.4023V25.5403H72.7073L76.1927 33.986L79.6628 25.5403H80.9833V35.7271H80.0927ZM83.8492 27.098C83.527 27.098 83.2352 26.8231 83.2352 26.4871C83.2352 26.1511 83.527 25.8763 83.8492 25.8763C84.187 25.8763 84.4631 26.1511 84.4631 26.4871C84.4631 26.8231 84.187 27.098 83.8492 27.098ZM83.4502 28.3501V35.7269H84.2483V28.3501H83.4502ZM90.6412 35.7271V25.5403H94.8482C96.568 25.5403 97.6735 26.533 97.6735 28.1366C97.6735 29.4194 96.7982 30.29 95.8771 30.4733C96.9671 30.6413 97.8731 31.7714 97.8731 32.978C97.8731 34.6733 96.7676 35.7271 94.9403 35.7271H90.6412ZM94.7407 30.1067H91.5164V26.3344H94.7407C96.0611 26.3344 96.7522 27.1897 96.7522 28.2281C96.7522 29.282 96.0611 30.1067 94.7407 30.1067ZM91.5164 34.9327H94.8022C96.1534 34.9327 96.9517 34.1539 96.9517 32.9168C96.9517 31.8782 96.23 30.9008 94.8022 30.9008H91.5164V34.9327ZM99.5569 32.0311C99.5569 34.1845 100.954 35.9102 103.119 35.9102C105.315 35.9102 106.697 34.1845 106.697 32.0311C106.697 29.8775 105.315 28.1671 103.119 28.1671C100.954 28.1671 99.5569 29.8775 99.5569 32.0311ZM103.119 35.1925C104.869 35.1925 105.837 33.6805 105.837 32.0311C105.837 30.3968 104.869 28.8848 103.119 28.8848C101.399 28.8848 100.417 30.3968 100.417 32.0311C100.417 33.6805 101.399 35.1925 103.119 35.1925ZM110.591 32.4737L113.048 35.7269H114L111.067 31.9393L113.831 28.3501H112.879L110.591 31.3894L108.288 28.3501H107.336L110.1 31.9393L107.168 35.7269H108.119L110.591 32.4737Z" fill="white"/>
    </g>
    <defs>
        <clipPath id="clip0_0_11000">
            <rect width="150" height="60" fill="white"/>
        </clipPath>
    </defs>
</svg>
